<?xml version="1.0" encoding="utf-8"?>
<!-- Generator: Adobe Illustrator 16.0.0, SVG Export Plug-In . SVG Version: 6.00 Build 0)  -->
<!DOCTYPE svg PUBLIC "-//W3C//DTD SVG 1.1//EN" "http://www.w3.org/Graphics/SVG/1.1/DTD/svg11.dtd">
<svg version="1.1" id="Layer_1" xmlns="http://www.w3.org/2000/svg" xmlns:xlink="http://www.w3.org/1999/xlink" x="0px" y="0px"
	 width="72px" height="72px" viewBox="0 0 72 72" enable-background="new 0 0 72 72" xml:space="preserve">
<g>
	<path fill="#0072BC" d="M11.42,15.164v24.57c0,4.58,3.807,8.293,8.504,8.293h19.108h0.388v-2.688H21.775
		c-4.049,0-7.329-3.229-7.329-7.213V23.952V23.33h0.292h41.616v10.987l3.271,2.723V15.164H11.42z M16.429,20.732
		c-0.64,0-1.158-0.519-1.158-1.158s0.519-1.158,1.158-1.158s1.158,0.519,1.158,1.158S17.068,20.732,16.429,20.732z M20.707,20.732
		c-0.641,0-1.158-0.519-1.158-1.158s0.518-1.158,1.158-1.158c0.639,0,1.158,0.519,1.158,1.158S21.346,20.732,20.707,20.732z
		 M24.984,20.732c-0.64,0-1.158-0.519-1.158-1.158s0.519-1.158,1.158-1.158s1.158,0.519,1.158,1.158S25.624,20.732,24.984,20.732z"
		/>
	<rect x="18.336" y="28.209" fill="#0072BC" width="17.187" height="3.988"/>
	<rect x="19.465" y="34.139" fill="#0072BC" width="10.977" height="3.142"/>
	<polygon fill="#00C0F3" points="49.962,48.027 44.578,53.347 42.909,30.898 60.58,43.867 53.147,45.914 58.836,54.939 
		55.347,56.836 	"/>
</g>
</svg>
