<?xml version="1.0" encoding="utf-8"?>
<!-- Generator: Adobe Illustrator 16.0.0, SVG Export Plug-In . SVG Version: 6.00 Build 0)  -->
<!DOCTYPE svg PUBLIC "-//W3C//DTD SVG 1.1//EN" "http://www.w3.org/Graphics/SVG/1.1/DTD/svg11.dtd">
<svg version="1.1" id="Layer_1" xmlns="http://www.w3.org/2000/svg" xmlns:xlink="http://www.w3.org/1999/xlink" x="0px" y="0px"
	 width="72px" height="72px" viewBox="0 0 72 72" enable-background="new 0 0 72 72" xml:space="preserve">
<g>
	<g>
		<path fill="#0D73BB" d="M30.707,35.511c-0.435,0-0.855-0.174-1.164-0.491l-3.066-3.146c-0.627-0.642-0.613-1.671,0.029-2.298
			c0.642-0.627,1.67-0.614,2.297,0.029l1.451,1.487l2.449-5.056c0.232-0.482,0.689-0.818,1.219-0.898
			c0.532-0.079,1.066,0.107,1.432,0.498l2.216,2.375l2.927-3.482c0.578-0.688,1.604-0.776,2.29-0.198
			c0.687,0.577,0.775,1.603,0.198,2.29l-4.107,4.886c-0.3,0.356-0.737,0.566-1.202,0.579c-0.472,0.003-0.912-0.176-1.23-0.516
			l-1.851-1.983l-2.424,5.006c-0.231,0.477-0.68,0.811-1.203,0.896C30.881,35.504,30.793,35.511,30.707,35.511z"/>
	</g>
	<polygon fill="#0D73BB" points="38.899,57.359 38.899,49.061 35.899,49.061 35.899,54.876 23.003,54.876 23.003,48.049 
		16.643,48.049 16.643,30.846 16.704,30.794 18.723,30.794 18.723,27.794 15.078,27.794 13.643,28.976 13.643,53.618 21.615,57.876 
		38.383,57.876 	"/>
	<path fill="#1ABFF1" d="M56.665,47.736l-7.237-7.6c1.732-2.571,2.744-5.668,2.744-9.002C52.172,22.224,44.948,15,36.037,15
		c-8.91,0-16.135,7.224-16.135,16.135c0,8.911,7.225,16.135,16.135,16.135c3.043,0,5.878-0.857,8.307-2.321l7.253,7.616
		c0.688,0.722,1.61,1.086,2.535,1.086c0.866,0,1.735-0.32,2.413-0.966C57.944,51.352,57.998,49.137,56.665,47.736z M24.793,31.135
		c0-6.21,5.034-11.245,11.244-11.245c6.211,0,11.245,5.035,11.245,11.245c0,6.211-5.034,11.245-11.245,11.245
		C29.827,42.38,24.793,37.346,24.793,31.135z"/>
</g>
</svg>
