<?xml version="1.0" encoding="utf-8"?>
<!-- Generator: Adobe Illustrator 16.0.0, SVG Export Plug-In . SVG Version: 6.00 Build 0)  -->
<!DOCTYPE svg PUBLIC "-//W3C//DTD SVG 1.1//EN" "http://www.w3.org/Graphics/SVG/1.1/DTD/svg11.dtd">
<svg version="1.1" id="Layer_1" xmlns="http://www.w3.org/2000/svg" xmlns:xlink="http://www.w3.org/1999/xlink" x="0px" y="0px"
	 width="72px" height="72px" viewBox="0 0 72 72" enable-background="new 0 0 72 72" xml:space="preserve">
<g>
	<path fill="#00C0F3" d="M19.962,40.443c-0.363-1.355-0.557-2.78-0.557-4.251c0-8.743,6.851-15.884,15.477-16.351l4.982-4.438
		c-1.321-0.258-2.687-0.393-4.084-0.393c-11.698,0-21.182,9.482-21.182,21.181c0,2.804,0.544,5.48,1.534,7.93L19.962,40.443z"/>
	<path fill="#00C0F3" d="M52.13,37.107c-0.475,8.617-7.614,15.46-16.35,15.46c-1.612,0-3.17-0.233-4.642-0.668l-3.087,4.021
		c2.394,0.938,5.001,1.454,7.729,1.454c11.697,0,21.182-9.484,21.182-21.182c0-1.372-0.13-2.713-0.379-4.013L52.13,37.107z"/>
	<path fill="#0072BC" d="M54.1,24.864c-0.017-0.091-0.083-0.166-0.172-0.194c-0.088-0.027-0.186-0.005-0.251,0.062l-3.442,3.442
		c-0.825,0.826-2.078,1.924-3.42,1.924c-1.336,0-2.591-0.52-3.535-1.464c-0.924-0.924-1.351-2.099-1.232-3.397
		c0.112-1.237,0.716-2.459,1.699-3.443l3.546-3.546c0.071-0.071,0.115-0.177,0.076-0.271c-0.038-0.093-0.107-0.152-0.209-0.152
		c-0.675-0.127-1.348-0.192-1.999-0.192c-6.328,0-9.355,6.06-9.385,6.121c-0.017,0.034-0.025,0.071-0.025,0.109v4.594l-0.019,0.014
		c-0.145,0.109-0.289,0.219-0.42,0.351L20.625,43.51c-1.039,1.038-1.611,2.42-1.611,3.889s0.572,2.851,1.611,3.889
		c1.039,1.039,2.42,1.611,3.889,1.611s2.85-0.572,3.889-1.611l14.685-14.686c0.117-0.117,0.214-0.243,0.312-0.371l0.026-0.034h4.505
		c0.037,0,0.074-0.009,0.108-0.025C48.114,36.136,55.487,32.506,54.1,24.864z M26.063,48.023c0,0.991-0.806,1.797-1.797,1.797
		s-1.796-0.806-1.796-1.797c0-0.99,0.806-1.796,1.796-1.796S26.063,47.033,26.063,48.023z"/>
</g>
</svg>
