<?xml version="1.0" encoding="utf-8"?>
<!-- Generator: Adobe Illustrator 23.0.1, SVG Export Plug-In . SVG Version: 6.00 Build 0)  -->
<svg version="1.1" id="Layer_1" xmlns="http://www.w3.org/2000/svg" xmlns:xlink="http://www.w3.org/1999/xlink" x="0px" y="0px"
	 viewBox="0 0 29.2 19.9" style="enable-background:new 0 0 29.2 19.9;" xml:space="preserve">
<style type="text/css">
	.st0{fill:#007ABD;}
	.st1{fill:#8DC2DF;}
</style>
<title>np_bubble-quote_218861_000000</title>
<desc>Created with Sketch.</desc>
<g>
	<path class="st0" d="M21.7,0h-21C0.3,0,0,0.3,0,0.7v18.5c0,0.4,0.3,0.7,0.7,0.7h21c0.4,0,0.7-0.3,0.7-0.7V0.7
		C22.4,0.3,22.1,0,21.7,0z M17.2,1.5c0.5,0,0.9,0.4,0.9,0.9s-0.4,0.9-0.9,0.9c-0.5,0-0.9-0.4-0.9-0.9S16.7,1.5,17.2,1.5z M14.5,1.5
		c0.5,0,0.9,0.4,0.9,0.9S15,3.4,14.5,3.4S13.5,3,13.5,2.5S13.9,1.5,14.5,1.5z M21,18.5H1.4V5H21V18.5z M20,3.4
		c-0.5,0-0.9-0.4-0.9-0.9s0.4-0.9,0.9-0.9C20.6,1.5,21,2,21,2.5S20.6,3.4,20,3.4z"/>
	<rect x="3" y="6.7" class="st1" width="16.1" height="3"/>
	<rect x="3" y="11" class="st1" width="5.1" height="5.4"/>
	<rect x="9.1" y="11.1" class="st1" width="5.5" height="0.7"/>
	<rect x="9.1" y="13.3" class="st1" width="5.5" height="0.7"/>
	<rect x="9.1" y="15.5" class="st1" width="5.5" height="0.7"/>
	<g>
		<polygon class="st0" points="17.5,14.4 17.5,14.6 16.9,16.5 18.9,15.9 19,15.9 		"/>
		<path class="st0" d="M28.3,8.1L29,7.4c0.3-0.3,0.3-0.7,0-1l-2-2c-0.3-0.3-0.7-0.3-1,0l-0.8,0.8L28.3,8.1z"/>
		<path class="st0" d="M25,5.5C25,5.5,24.9,5.5,25,5.5l-6.2,6.1c-0.3,0.3-0.3,0.7,0,1l0.1,0.1c0.2,0.2,0.5,0.2,0.7,0.2
			c-0.1,0.2,0,0.5,0.2,0.7l0.1,0.1c0.2,0.2,0.5,0.2,0.7,0.2c-0.1,0.2,0,0.5,0.2,0.7l0.1,0.1c0.3,0.3,0.7,0.3,1,0l6.1-6.1
			c0,0,0-0.1,0.1-0.1L25,5.5z"/>
	</g>
</g>
</svg>
