<?xml version="1.0" encoding="utf-8"?>
<!-- Generator: Adobe Illustrator 16.0.0, SVG Export Plug-In . SVG Version: 6.00 Build 0)  -->
<!DOCTYPE svg PUBLIC "-//W3C//DTD SVG 1.1//EN" "http://www.w3.org/Graphics/SVG/1.1/DTD/svg11.dtd">
<svg version="1.1" id="Layer_1" xmlns="http://www.w3.org/2000/svg" xmlns:xlink="http://www.w3.org/1999/xlink" x="0px" y="0px"
	 width="72px" height="72px" viewBox="0 0 72 72" enable-background="new 0 0 72 72" xml:space="preserve">
<g>
	<path fill="#00C0F3" d="M53.87,31.553c-1.297-0.381-2.479-0.574-3.517-0.574c-2.677,0-3.757,1.255-4.127,1.873h5.416
		c0.074,0,0.144,0.033,0.191,0.089c0.047,0.057,0.067,0.131,0.055,0.204c-0.319,1.848-1.604,2.825-3.714,2.825
		c-3.472,0-8.091-2.541-8.285-2.648c-0.686-0.353-0.052-2.124,1.455-5.801c0.473-1.153,0.919-2.242,1.081-2.835
		c0.097-0.355,0.243-0.802,0.408-1.302c0.656-1.995,1.648-5.009,0.713-6.32c-0.467-0.653-1.244-1.043-2.079-1.043
		c-0.95,0-2.099,0.537-2.476,2.042c-2.699,9.147-7.652,14.254-9.28,15.933c-0.183,0.189-0.319,0.328-0.397,0.419
		c-0.307,0.357-0.691,0.616-1.063,0.865c-0.621,0.417-1.001,0.695-1.001,1.16c0,0.44,0.193,3.111,0.397,5.939
		c0.253,3.504,0.54,7.476,0.54,8.311v0.162c-0.001,1.097-0.004,2.932,0.657,3.594c0.165,0.165,0.362,0.245,0.603,0.245
		c0.113-0.004,0.19-0.005,0.273-0.005c1.717,0,6.769,0.619,13.652,2.324c1.425,0.385,2.73,0.58,3.887,0.58c0.001,0,0.001,0,0.002,0
		c7.552-0.001,7.993-8.214,8.316-14.211c0.063-1.184,0.124-2.302,0.236-3.22C56.617,33.602,55.751,32.076,53.87,31.553z"/>
	<path fill="#0072BC" d="M25.917,54.833c-2.205-4.623-1.867-16.877-1.869-17.009c-0.001-0.068-0.03-0.133-0.08-0.179
		s-0.117-0.071-0.184-0.067c-3.665,0.192-8.034,0.77-8.034,2.418c-0.38,6.864,1.821,15.761,1.843,15.85
		c0.026,0.105,0.118,0.182,0.227,0.188c0.02,0.002,1.494-0.715,3.972-0.715c1.457,0,2.775-0.043,3.918-0.13
		c0.082-0.006,0.156-0.053,0.197-0.124S25.952,54.907,25.917,54.833z"/>
</g>
</svg>
