<?xml version="1.0" encoding="UTF-8"?>
<svg width="30px" height="30px" viewBox="0 0 30 30" version="1.1" xmlns="http://www.w3.org/2000/svg" xmlns:xlink="http://www.w3.org/1999/xlink">
    <!-- Generator: Sketch 49 (51002) - http://www.bohemiancoding.com/sketch -->
    <title>np_bubble-quote_218861_000000</title>
    <desc>Created with Sketch.</desc>
    <defs></defs>
    <g id="Page-1" stroke="none" stroke-width="1" fill="none" fill-rule="evenodd">
        <g id="ws_navgation_home_products" transform="translate(-532.000000, -361.000000)" fill="#007ABD" fill-rule="nonzero">
            <g id="nav" transform="translate(506.000000, 150.000000)">
                <g id="Group-7" transform="translate(26.000000, 206.000000)">
                    <g id="np_bubble-quote_218861_000000" transform="translate(0.000000, 5.000000)">
                        <path d="M19.2,8.3694 C21.24024,8.3694 23.0097,9.77916 23.0097,12.7791 C23.0097,17.0694 19.5,19.5888 17.55,19.8291 L17.1,18.65958 C18.24024,17.90958 19.2,16.61934 19.10976,15.86934 C17.81952,15.779106 15.71946,15.05958 15.71946,12.26934 C15.6901629,10.14003 16.89015,8.36934 19.20006,8.36934 L19.2,8.3694 Z M10.5,8.3694 C12.54024,8.3694 14.3097,9.77916 14.3097,12.7791 C14.3097,17.0694 10.8,19.5888 8.85,19.8291 L8.4,18.65958 C9.54024,17.90958 10.5,16.61934 10.40976,15.86934 C9.11952,15.779106 7.01946,15.05958 7.01946,12.26934 C6.9901629,10.14003 8.19015,8.36934 10.50006,8.36934 L10.5,8.3694 Z M25.95,22.5 L20.3097,25.95 C22.49994,27.18048 26.25,29.0694 30,30 L25.95,22.5 Z M15,0 C6.8694,0 0,6.2403 0,13.7403 C0,21.8709 6.8694,27.4806 15,27.4806 C23.1306,27.4806 30,21.8709 30,13.7403 C30,6.2403 23.1306,0 15,0 Z" id="Shape"></path>
                    </g>
                </g>
            </g>
        </g>
    </g>
</svg>