<?xml version="1.0" encoding="UTF-8"?>
<svg width="35px" height="21px" viewBox="0 0 35 21" version="1.1" xmlns="http://www.w3.org/2000/svg" xmlns:xlink="http://www.w3.org/1999/xlink">
    <!-- Generator: Sketch 49 (51002) - http://www.bohemiancoding.com/sketch -->
    <title>np_team_144387_000000</title>
    <desc>Created with Sketch.</desc>
    <defs></defs>
    <g id="Page-1" stroke="none" stroke-width="1" fill="none" fill-rule="evenodd">
        <g id="ws_navigation_home_agencies" transform="translate(-688.000000, -196.000000)" fill-rule="nonzero">
            <g id="nav" transform="translate(664.000000, 150.000000)">
                <g id="Group-4" transform="translate(24.000000, 32.000000)">
                    <g id="np_team_144387_000000" transform="translate(0.000000, 14.000000)">
                        <path d="M21.7287,4.36555 C21.7287,6.755385 19.68337,8.6912 17.15945,8.6912 C14.635635,8.6912 12.5902,6.75528 12.5902,4.36555 C12.5902,1.97582 14.63553,0.0385 17.15945,0.0385 C19.683265,0.0385 21.7287,1.97582 21.7287,4.36555" id="Shape" fill="#007ABD"></path>
                        <path d="M10.40305,4.21925 C10.40305,6.01846 8.87999,7.475895 7.000105,7.475895 C5.12022,7.475895 3.59716,6.01846 3.59716,4.21925 C3.59716,2.421405 5.12022,0.962605 7.000105,0.962605 C8.87999,0.962605 10.40305,2.421405 10.40305,4.21925" id="Shape" fill="#8DC2DF"></path>
                        <path d="M31.40305,4.21925 C31.40305,6.01846 29.87999,7.475895 28.000105,7.475895 C26.12022,7.475895 24.59716,6.01846 24.59716,4.21925 C24.59716,2.421405 26.12022,0.962605 28.000105,0.962605 C29.87999,0.962605 31.40305,2.421405 31.40305,4.21925" id="Shape" fill="#8DC2DF"></path>
                        <path d="M10.54935,11.51185 C10.93764,11.2206395 10.889781,10.63685 10.500133,10.393495 C9.478833,9.76185 8.263423,9.42144 7.000133,9.42144 C3.450783,9.372223 0.486983,12.143495 0.243383,15.64339 C0.243383,15.9346005 0.4375245,16.1301 0.680883,16.1301 L6.514683,16.1301 C6.8058935,16.1301 7.001393,15.9838105 7.146328,15.74181 C7.924273,14.0875 9.090473,12.628735 10.549273,11.51171 L10.54935,11.51185 Z" id="Shape" fill="#8DC2DF"></path>
                        <path d="M28,9.37195 C26.5412,9.37195 25.180855,9.85866 24.0625,10.63524 C23.67421,10.8785985 23.67421,11.46103 24.013283,11.704385 C25.325783,12.77353 26.444138,14.13524 27.172838,15.738835 C27.269907,15.9821935 27.513269,16.127125 27.804483,16.127125 L34.317633,16.127125 C34.6088435,16.127125 34.804343,15.8837665 34.755133,15.640415 C34.5131395,12.143145 31.549063,9.371915 27.999783,9.371915 L28,9.37195 Z" id="Shape" fill="#8DC2DF"></path>
                        <path d="M17.15945,11.21925 C12.3963,11.21925 8.4588,14.9135 8.11825,19.6287 C8.069033,19.969131 8.3616085,20.260345 8.749895,20.260345 L25.618145,20.260345 C25.958576,20.260345 26.24979,19.9691345 26.24979,19.6287 C25.8615,14.9625 21.92414,11.21925 17.15924,11.21925 L17.15945,11.21925 Z" id="Shape" fill="#007ABD"></path>
                    </g>
                </g>
            </g>
        </g>
    </g>
</svg>