<?xml version="1.0" encoding="UTF-8"?>
<svg width="33px" height="26px" viewBox="0 0 33 26" version="1.1" xmlns="http://www.w3.org/2000/svg" xmlns:xlink="http://www.w3.org/1999/xlink">
    <!-- Generator: Sketch 49 (51002) - http://www.bohemiancoding.com/sketch -->
    <title>np_service_406882_000000</title>
    <desc>Created with Sketch.</desc>
    <defs></defs>
    <g id="Page-1" stroke="none" stroke-width="1" fill="none" fill-rule="evenodd">
        <g id="ws_navgation_home_products" transform="translate(-531.000000, -277.000000)">
            <g id="nav" transform="translate(506.000000, 150.000000)">
                <g id="Group-5" transform="translate(25.000000, 119.000000)">
                    <g id="np_service_406882_000000" transform="translate(0.000000, 8.000000)">
                        <path d="M0,11.395 L0,22.4553571 L3.68285714,22.4553571 L3.68285714,11.395 L0,11.395 Z M10.8707143,11.8972143 C8.73621429,11.8958193 6.465,12.299 4.71,12.8682143 L4.71,20.7364286 C5.39360714,20.9331357 5.93210714,21.0307929 6.62964286,21.1717143 C8.65671429,21.5818571 10.3546429,22.963 12.2435714,23.7945 C13.87025,24.5101786 15.4801786,25.5467143 17.2882143,25.5802143 C20.0477143,25.6304357 22.7442857,24.9301071 25.4578571,24.4976429 C27.6509286,24.147475 29.6360714,22.2138929 31.105,20.6247857 C32.4359286,19.1850714 32.3298929,18.3103214 31.6742143,17.3100714 C30.939,16.1884286 29.1226071,16.8482857 28.1585714,17.6783571 C27.0452857,18.6353929 25.72275,19.4138571 24.1964286,19.5756786 C21.7703571,19.832375 19.0917857,19.9523571 16.9864286,18.5823929 C17.9448571,18.1094643 19.2841429,18.4861321 20.3904286,18.4931071 C21.9389643,18.5028729 23.5237857,18.9562857 25.0443571,18.6493571 C26.6026786,18.3354607 26.7226429,15.6959643 25.089,15.1560714 C22.7382857,14.379 20.234,14.5296786 17.879,13.9060714 C16.1086429,13.4373214 14.5754286,12.2556786 12.7225714,12.00875 C12.1268571,11.9292286 11.5046429,11.8971429 10.8698929,11.8971429 L10.8707143,11.8972143 Z M1.84178571,20.0779286 C2.28821429,20.0779286 2.6565,20.4462143 2.6565,20.8926429 C2.6565,21.3390714 2.28821429,21.6962143 1.84178571,21.6962143 C1.39535714,21.6962143 1.03821429,21.3390714 1.03821429,20.8926429 C1.03821429,20.4462143 1.39535714,20.0779286 1.84178571,20.0779286 Z" id="Shape" fill="#007ABD" fill-rule="nonzero"></path>
                        <path d="M19.1182143,0.133928571 C18.8503571,0.147879286 18.6131786,0.348771429 18.5713571,0.625 L18.3704643,1.96428571 C17.3729643,2.01869286 16.4131429,2.26422857 15.5356429,2.66742857 L14.7320714,1.57367857 C14.5423393,1.31698214 14.1852143,1.26117857 13.9285,1.45091071 L12.2767143,2.67858929 C12.0200179,2.86832143 11.9642143,3.22544643 12.1539464,3.48216071 L12.9575179,4.57591071 C12.3129821,5.29576786 11.7981964,6.13841071 11.4508036,7.07591071 L10.1115179,6.86385714 C9.79622857,6.816425 9.50048214,7.03963929 9.45301786,7.35492857 L9.15167857,9.38617857 C9.10424643,9.70146786 9.3163,9.99721429 9.63160714,10.0446786 L10.9708929,10.2455714 C10.9848436,10.4938964 11.0127464,10.7394286 11.0490179,10.9821786 L11.1717857,10.9821786 C11.9516429,10.9612521 12.7287143,11.0561179 13.4820714,11.238875 C13.28955,10.5245893 13.2309571,9.762875 13.3481429,8.98441071 C13.8029286,5.969625 16.6168214,3.88691071 19.6317143,4.34155357 C22.6466071,4.79619643 24.7292143,7.61023214 24.2745714,10.625125 C24.0918143,11.8374464 23.5170357,12.9005179 22.7120714,13.7054821 C23.5170357,13.8156929 24.3164286,13.9649679 25.0892857,14.2076964 C25.1548536,14.2202521 25.2162393,14.2342032 25.2790179,14.2523393 C25.6403393,13.7277679 25.9444821,13.1474107 26.171875,12.5335893 L27.5111607,12.7344821 C27.82645,12.7819143 28.1221964,12.5698607 28.1696607,12.2545536 L28.471,10.2233036 C28.5184321,9.90801429 28.3063786,9.61226786 27.9910714,9.56480357 L26.6517857,9.36391071 C26.5973786,8.36641071 26.3518429,7.40658929 25.9486429,6.52908929 L27.0423929,5.72551786 C27.2990893,5.53578571 27.3548929,5.17866071 27.1651607,4.92194643 L25.9374821,3.27016071 C25.74775,3.01346429 25.390625,2.95766071 25.1339107,3.14739286 L24.0401607,3.95096429 C23.3203036,3.30642857 22.4762679,2.79164286 21.5401607,2.44425 L21.7410536,1.10496429 C21.7884857,0.789675 21.5764321,0.493928571 21.261125,0.446464286 L19.229875,0.145125 C19.1908107,0.139544643 19.1559357,0.132569286 19.1182679,0.133964286 L19.1182143,0.133928571 Z" id="Path" fill="#8DC2DF"></path>
                    </g>
                </g>
            </g>
        </g>
    </g>
</svg>