<?xml version="1.0" encoding="UTF-8"?>
<svg width="30px" height="30px" viewBox="0 0 30 30" version="1.1" xmlns="http://www.w3.org/2000/svg" xmlns:xlink="http://www.w3.org/1999/xlink">
    <!-- Generator: Sketch 49 (51002) - http://www.bohemiancoding.com/sketch -->
    <title>Page 1</title>
    <desc>Created with Sketch.</desc>
    <defs></defs>
    <g id="Page-1" stroke="none" stroke-width="1" fill="none" fill-rule="evenodd">
        <g id="ws_navgation_home_products" transform="translate(-532.000000, -190.000000)" fill="#037ABC">
            <g id="nav" transform="translate(506.000000, 150.000000)">
                <g id="Group-4" transform="translate(26.000000, 34.000000)">
                    <g id="Page-1" transform="translate(0.000000, 6.000000)">
                        <path d="M14.9975204,25.9374673 C13.8197755,24.4565082 13.1719286,22.6009163 13.1719286,20.7053755 C13.1719286,19.3541816 13.4826429,18.0640898 14.0955,16.8702429 C14.3880918,16.9003041 14.6836224,16.915549 14.9744082,16.915549 C15.2787551,16.915549 15.588949,16.8987122 15.897,16.8654367 C16.5029694,18.0445286 16.8231122,19.3715694 16.8231122,20.7053755 C16.8231122,22.6009163 16.1752653,24.4565082 14.9975204,25.9374673" id="Fill-1"></path>
                        <path d="M14.0425316,16.7716714 C11.2692153,16.4660388 8.84301122,14.8128245 7.53491939,12.3396 C7.82781735,12.3092327 8.12236837,12.2938347 8.41156224,12.2938347 C10.9549194,12.2938347 13.3314398,13.425202 14.9381235,15.3995082 C14.5961847,15.8272837 14.2949908,16.2886408 14.0425316,16.7716714" id="Fill-3"></path>
                        <path d="M15.9498214,16.7665286 C15.697852,16.2853041 15.3976378,15.8257224 15.0569235,15.3995082 C16.6635765,13.425202 19.0401276,12.2938347 21.5834847,12.2938347 C21.8589949,12.2938347 22.1388827,12.3076408 22.4163827,12.3349469 C21.1170765,14.7952224 18.7062398,16.4481612 15.9498214,16.7665286" id="Fill-5"></path>
                        <path d="M14.9744143,16.8231214 C14.6988122,16.8231214 14.4189857,16.8092847 14.1415163,16.781948 C14.3845469,16.321999 14.6722102,15.8823153 14.9975265,15.4732745 C15.3217408,15.8808765 15.6085163,16.3190602 15.8510571,16.7773561 C15.5581286,16.8077235 15.2635776,16.8231214 14.9744143,16.8231214" id="Fill-7"></path>
                        <path d="M23.9206041,17.6991276 L23.0732878,17.6995255 C22.4089714,17.6995255 22.2803388,18.0152296 22.2803388,18.4784847 L22.2803388,19.5000459 L23.8647673,19.5000459 L23.6584714,21.1000867 L22.2803388,21.1000867 L22.2803388,25.2057398 L20.6280122,25.2057398 L20.6280122,21.1000867 L19.2463898,21.1000867 L19.2463898,19.5000459 L20.6280122,19.5000459 L20.6280122,18.3200357 C20.6280122,16.9506888 21.4643694,16.2050357 22.685951,16.2050357 C23.2710735,16.2050357 23.774002,16.2485969 23.9206041,16.2680663 L23.9206041,17.6991276 Z M27.8228388,15.0642092 C26.4391041,13.5349133 24.5553796,12.5701378 22.5153796,12.3452602 C21.2113592,14.8403112 18.7796449,16.521199 15.9950939,16.8542602 C16.5974204,18.0385867 16.9155429,19.3686888 16.9155429,20.7053724 C16.9155429,22.6285867 16.2556653,24.5113929 15.0569204,26.0112398 C16.6636041,27.9855459 19.0401245,29.1169133 21.5834816,29.1169133 C26.2216653,29.1169133 29.9950531,25.3435561 29.9950531,20.7053724 C29.9950531,18.61575 29.2235939,16.6123316 27.8228388,15.0642092 Z" id="Fill-9"></path>
                        <path d="M11.5730755,22.6203122 L7.05682041,25.2252306 L5.25002449,24.2202 L5.25002449,16.1855265 L7.05577959,16.8207612 L7.05577959,23.1769959 L9.59922857,21.7087102 L8.35223878,21.1235878 L7.56550408,19.1655061 L11.5730755,20.5734245 L11.5730755,22.6203122 Z M13.0795041,20.7053633 C13.0795041,19.3513224 13.3882286,18.0577102 13.997198,16.8595776 C11.1959633,16.5391592 8.74900408,14.8582102 7.43613673,12.3504245 C5.40593265,12.5849143 3.53270816,13.5533633 2.15834082,15.0796898 C0.766493878,16.6254857 -6.12244898e-06,18.6233939 -6.12244898e-06,20.7053633 C-6.12244898e-06,25.3435469 3.77338163,29.1169347 8.41156531,29.1169347 C10.9549224,29.1169347 13.3314429,27.9855673 14.9381265,26.0112612 C13.7393816,24.5113837 13.0795041,22.6286082 13.0795041,20.7053633 Z" id="Fill-12"></path>
                        <path d="M15.0699857,12.6173418 C12.7377,12.6173418 10.8642,10.7438418 10.8642,8.41155612 C10.8642,6.07927041 12.7377,4.20580102 15.0699857,4.20580102 C16.1405571,4.20580102 17.0963939,4.60725 17.8419857,5.2572398 L16.6184755,6.48075 C16.1979245,6.13660714 15.6626082,5.92633163 15.0699857,5.92633163 C13.6935673,5.92633163 12.5847612,7.03510714 12.5847612,8.41155612 C12.5847612,9.7880051 13.6935673,10.8967806 15.0699857,10.8967806 C16.2361592,10.8967806 17.1155265,10.3041582 17.325802,9.27182143 L15.0699857,9.27182143 L15.0699857,7.64686224 L18.9890265,7.64686224 C19.0463939,7.89540306 19.0846286,8.16304592 19.0846286,8.41155612 C19.0846286,11.0879847 17.1728633,12.6173418 15.0699857,12.6173418 M14.9744143,1.53061225e-05 C10.3362306,1.53061225e-05 6.56287347,3.77343367 6.56287347,8.41155612 C6.56287347,9.7644949 6.8744449,11.056301 7.48898571,12.2514949 C7.79700612,12.21825 8.10723061,12.2013827 8.41154694,12.2013827 C10.9763633,12.2013827 13.3733633,13.3393929 14.9975265,15.3260663 C16.6216898,13.3393929 19.0186592,12.2013827 21.5834755,12.2013827 C21.8742306,12.2013827 22.1697918,12.2166276 22.4623837,12.2466888 C23.0752714,11.0528724 23.3859551,9.76275 23.3859551,8.41155612 C23.3859551,3.77343367 19.612598,1.53061225e-05 14.9744143,1.53061225e-05" id="Fill-15"></path>
                    </g>
                </g>
            </g>
        </g>
    </g>
</svg>