<?xml version="1.0" encoding="UTF-8"?>
<svg width="30px" height="30px" viewBox="0 0 30 30" version="1.1" xmlns="http://www.w3.org/2000/svg" xmlns:xlink="http://www.w3.org/1999/xlink">
    <!-- Generator: Sketch 49 (51002) - http://www.bohemiancoding.com/sketch -->
    <title>np_tools_943574_000000</title>
    <desc>Created with Sketch.</desc>
    <defs></defs>
    <g id="Page-1" stroke="none" stroke-width="1" fill="none" fill-rule="evenodd">
        <g id="ws_navgation_home_products" transform="translate(-532.000000, -447.000000)" fill-rule="nonzero">
            <g id="nav" transform="translate(506.000000, 150.000000)">
                <g id="Group-8" transform="translate(26.000000, 292.000000)">
                    <g id="np_tools_943574_000000" transform="translate(0.000000, 5.000000)">
                        <path d="M18.2714754,15.3786885 L17.030459,16.6197049 L17.7393443,17.3285902 C18.0159836,17.6052295 18.1696721,17.974082 18.1715951,18.367918 C18.1735161,18.7636672 18.0198295,19.1344426 17.7393443,19.413 L16.8863607,20.2659836 L25.9635738,29.3490984 C26.3823738,29.7678984 26.9395082,29.9965082 27.5331148,29.9965082 C28.1248033,29.9965082 28.68,29.7659754 29.0988197,29.3490984 C29.9652295,28.4826885 29.9671475,27.0745082 29.1026616,26.2100164 L18.2714754,15.3786885 Z" id="Shape" fill="#8DC2DF"></path>
                        <path d="M7.74393443,11.6247541 L8.12431475,11.4998803 L9.98392131,13.3594869 L10.8349869,12.5084213 C11.1135492,12.229859 11.4823967,12.0761705 11.8762328,12.0761705 C12.270059,12.0761705 12.6408393,12.229859 12.9193967,12.5084213 L13.6225279,13.2115525 L14.8635443,11.9705361 L11.2538066,8.36079836 L11.3786803,7.98041803 C12.0529918,5.92482787 11.520841,3.69828689 9.99164754,2.16730328 C8.47010656,0.645762295 6.26087705,0.109795082 4.21886066,0.764877049 L4.19388639,0.780245902 L4.23615049,0.834034426 L6.59719967,3.19508361 C7.26959311,3.86747705 7.27151115,4.96252623 6.60104213,5.63295246 L5.3868782,6.84711639 C4.71640279,7.5175918 3.62140279,7.5175918 2.94900934,6.84327393 L0.539960164,4.43997885 L0.532275738,4.44958426 L0.488090656,4.56293016 C-0.115155246,6.58011049 0.426615246,8.74134 1.92125459,10.235881 C3.45430377,11.7670121 5.68468082,12.2991433 7.74420541,11.6248318 L7.74393443,11.6247541 Z" id="Shape" fill="#8DC2DF"></path>
                        <path d="M17.1457377,17.9237705 L15.8432459,16.6212787 L25.3739016,7.08472131 L26.7935902,7.18269836 C27.0375689,7.1999882 27.2757885,7.07127541 27.394918,6.85611148 L29.6733443,2.75457049 C29.8116639,2.50290492 29.7655574,2.1955377 29.5657623,1.99571803 L28.247877,0.677832787 C28.048082,0.478037705 27.7407295,0.433854098 27.4909426,0.57217377 L23.3855164,2.84676393 C23.1703525,2.96587377 23.0416377,3.20217049 23.0589295,3.4480918 L23.1569066,4.86778033 L13.6242836,14.4023705 L12.3275459,13.1056328 C12.0835672,12.8616541 11.678218,12.8578082 11.4303984,13.1056328 L10.0913656,14.4446656 C9.84354098,14.6924902 9.84738689,15.0959115 10.0913656,15.3418131 C10.2027885,15.4532361 10.2027885,15.6318984 10.095208,15.7394803 L10.0471805,15.7875079 C9.93575754,15.8989308 9.75709525,15.8989308 9.64566738,15.7875079 C9.40168869,15.5435292 8.99633951,15.5396833 8.74851984,15.7875079 L1.02966738,23.5043931 C-0.0096604918,24.543721 -0.0096604918,26.2304587 1.02582541,27.2678193 L2.97769426,29.2196882 C4.0151041,30.257098 5.70375984,30.2590161 6.74500574,29.2196882 L14.4638582,21.5008357 C14.7116828,21.2530111 14.7078369,20.8495898 14.4638582,20.6036882 C14.3524352,20.4922652 14.3524352,20.313603 14.4638582,20.2021751 L14.5118857,20.1541475 C14.6194677,20.0465656 14.800053,20.0465656 14.909553,20.1579895 C15.1535316,20.4019682 15.5588808,20.4058141 15.8067005,20.1579895 L17.1457333,18.8189567 C17.3935579,18.5730551 17.3916349,18.1696289 17.1457333,17.9237272 L17.1457377,17.9237705 Z" id="Shape" fill="#007ABD"></path>
                    </g>
                </g>
            </g>
        </g>
    </g>
</svg>