<?xml version="1.0" encoding="UTF-8"?>
<svg width="40px" height="40px" viewBox="0 0 40 40" version="1.1" xmlns="http://www.w3.org/2000/svg" xmlns:xlink="http://www.w3.org/1999/xlink">
    <!-- Generator: Sketch 50.2 (55047) - http://www.bohemiancoding.com/sketch -->
    <title>Group 12</title>
    <desc>Created with Sketch.</desc>
    <defs></defs>
    <g id="Page-1" stroke="none" stroke-width="1" fill="none" fill-rule="evenodd">
        <g id="footer_social_update" transform="translate(-1076.000000, -144.000000)">
            <g id="Group-12" transform="translate(1076.000000, 144.000000)">
                <circle id="Oval" fill="#A5A8B4" cx="20" cy="20" r="20"></circle>
                <path d="M20.0405553,14.1808379 C21.0093033,14.1808379 21.9077381,14.423025 22.7358614,14.9073986 C23.5639847,15.3917723 24.2202331,16.0480207 24.7046067,16.876144 C25.1889803,17.7042672 25.4311675,18.6027021 25.4311675,19.57145 C25.4311675,20.540198 25.1889803,21.4386328 24.7046067,22.2667561 C24.2202331,23.0948794 23.5639847,23.7511278 22.7358614,24.2355014 C21.9077381,24.719875 21.0093033,24.9620622 20.0405553,24.9620622 C19.0718074,24.9620622 18.1733725,24.719875 17.3452492,24.2355014 C16.517126,23.7511278 15.8608775,23.0948794 15.3765039,22.2667561 C14.8921303,21.4386328 14.6499432,20.540198 14.6499432,19.57145 C14.6499432,18.6027021 14.8921303,17.7042672 15.3765039,16.876144 C15.8608775,16.0480207 16.517126,15.3917723 17.3452492,14.9073986 C18.1733725,14.423025 19.0718074,14.1808379 20.0405553,14.1808379 Z M20.0405553,23.0870666 C21.0093033,23.0870666 21.8374258,22.7433177 22.5249244,22.0558191 C23.212423,21.3683205 23.5561719,20.540198 23.5561719,19.57145 C23.5561719,18.6027021 23.212423,17.7745796 22.5249244,17.087081 C21.8374258,16.3995824 21.0093033,16.0558334 20.0405553,16.0558334 C19.0718074,16.0558334 18.2436848,16.3995824 17.5561862,17.087081 C16.8686876,17.7745796 16.5249387,18.6027021 16.5249387,19.57145 C16.5249387,20.540198 16.8686876,21.3683205 17.5561862,22.0558191 C18.2436848,22.7433177 19.0718074,23.0870666 20.0405553,23.0870666 Z M26.9311639,13.9464634 C26.8999137,14.2902124 26.7671018,14.5870872 26.5327273,14.8370863 C26.2983529,15.0870855 26.0092909,15.2120854 25.6655419,15.2120854 C25.321793,15.2120854 25.0249182,15.0870855 24.774919,14.8370863 C24.5249199,14.5870872 24.3999199,14.2902124 24.3999199,13.9464634 C24.3999199,13.6027145 24.5249199,13.3058397 24.774919,13.0558406 C25.0249182,12.8058414 25.321793,12.6808415 25.6655419,12.6808415 C26.0092909,12.6808415 26.3061656,12.8058414 26.5561648,13.0558406 C26.806164,13.3058397 26.9311639,13.6027145 26.9311639,13.9464634 Z M30.4936554,15.2120854 C30.5249056,16.0870836 30.5405303,17.5402051 30.5405303,19.57145 C30.5405303,21.6026949 30.5170928,23.0636292 30.470218,23.9542521 C30.4233431,24.844875 30.2905311,25.6183106 30.0717814,26.274559 C29.7905321,27.0558074 29.3608454,27.7354933 28.782722,28.3136167 C28.2045986,28.8917401 27.5249127,29.3214268 26.7436643,29.6026761 C26.0874159,29.8214258 25.3139802,29.9542378 24.4233574,30.0011127 C23.5327345,30.0479876 22.0718002,30.071425 20.0405553,30.071425 C18.0093104,30.071425 16.5483761,30.0479876 15.6577533,30.0011127 C14.7671304,29.9542378 13.9936947,29.8058004 13.3374463,29.5558012 C12.5561979,29.3058021 11.876512,28.8917401 11.2983887,28.3136167 C10.7202653,27.7354933 10.2905786,27.0558074 10.0093292,26.274559 C9.79057952,25.6183106 9.65776758,24.844875 9.61089269,23.9542521 C9.5640178,23.0636292 9.54058036,21.6026949 9.54058036,19.57145 C9.54058036,17.5402051 9.5640178,16.0792709 9.61089269,15.188648 C9.65776758,14.2980251 9.79057952,13.5245894 10.0093292,12.868341 C10.2905786,12.0870926 10.7202653,11.4074068 11.2983887,10.8292834 C11.876512,10.25116 12.5561979,9.82147327 13.3374463,9.54022395 C13.9936947,9.32147423 14.7671304,9.18866228 15.6577533,9.1417874 C16.5483761,9.09491251 18.0093104,9.07147506 20.0405553,9.07147506 C22.0718002,9.07147506 23.5327345,9.09491251 24.4233574,9.1417874 C25.3139802,9.18866228 26.0874159,9.32147423 26.7436643,9.54022395 C27.5249127,9.82147327 28.2045986,10.25116 28.782722,10.8292834 C29.3608454,11.4074068 29.7905321,12.0870926 30.0717814,12.868341 C30.2905311,13.5245894 30.4311558,14.3058378 30.4936554,15.2120854 Z M28.2436608,25.7589353 C28.4311603,25.2276868 28.5561603,24.3839388 28.6186599,23.2276913 C28.64991,22.5401927 28.6655348,21.5714455 28.6655348,20.3214482 L28.6655348,18.8214518 C28.6655348,17.5402051 28.64991,16.5714572 28.6186599,15.9152087 C28.5561603,14.7277118 28.4311603,13.8839638 28.2436608,13.3839648 C27.8686617,12.4152169 27.1967885,11.7433437 26.2280406,11.3683446 C25.7280415,11.180845 24.8842935,11.0558451 23.6967966,10.9933455 C23.009298,10.9620953 22.0405508,10.9464706 20.7905535,10.9464706 L19.2905571,10.9464706 C18.0405599,10.9464706 17.0718126,10.9620953 16.384314,10.9933455 C15.2280666,11.0558451 14.3843186,11.180845 13.8530701,11.3683446 C12.8843221,11.7433437 12.212449,12.4152169 11.8374499,13.3839648 C11.6499503,13.8839638 11.5249504,14.7277118 11.4624508,15.9152087 C11.4312006,16.6027073 11.4155759,17.5714546 11.4155759,18.8214518 L11.4155759,20.3214482 C11.4155759,21.5714455 11.4312006,22.5401927 11.4624508,23.2276913 C11.5249504,24.3839388 11.6499503,25.2276868 11.8374499,25.7589353 C12.2436992,26.7276832 12.9155723,27.3995564 13.8530701,27.7745555 C14.3843186,27.962055 15.2280666,28.087055 16.384314,28.1495546 C17.0718126,28.1808047 18.0405599,28.1964295 19.2905571,28.1964295 L20.7905535,28.1964295 C22.0718002,28.1964295 23.0405482,28.1808047 23.6967966,28.1495546 C24.8842935,28.087055 25.7280415,27.962055 26.2280406,27.7745555 C27.1967885,27.3683062 27.8686617,26.696433 28.2436608,25.7589353 Z" id="" fill="#F7F9F9"></path>
            </g>
        </g>
    </g>
</svg>