<svg id="Layer_1" data-name="Layer 1" xmlns="http://www.w3.org/2000/svg" viewBox="0 0 32 32"><defs><style>.cls-1{fill:#a5a8b4;}</style></defs><title>Linked in</title><g id="Page-1"><path id="Linked-in-" class="cls-1" d="M24,24H20.68V18.8c0-1.24,0-2.83-1.72-2.83s-2,1.35-2,2.74V24H13.66V13.32h3.18v1.46h.05A3.47,3.47,0,0,1,20,13.05c3.36,0,4,2.21,4,5.08ZM9.92,11.86a1.93,1.93,0,1,1,1.93-1.92,1.92,1.92,0,0,1-1.93,1.92ZM11.58,24H8.26V13.32h3.32ZM16,0A16,16,0,1,0,32,16,16,16,0,0,0,16,0Z" transform="translate(0 0)"/></g></svg>