<?xml version="1.0" encoding="UTF-8"?>
<svg width="233px" height="45px" viewBox="0 0 233 45" version="1.1" xmlns="http://www.w3.org/2000/svg" xmlns:xlink="http://www.w3.org/1999/xlink">
    <!-- Generator: Sketch 47.1 (45422) - http://www.bohemiancoding.com/sketch -->
    <title>Page 1</title>
    <desc>Created with Sketch.</desc>
    <defs>
        <polygon id="path-1" points="1.2041669e-15 11.7560763 1.2041669e-15 0.332944737 51.4928248 0.332944737 51.4928248 11.7560763 0 11.7560763"></polygon>
        <polygon id="path-3" points="1.2041669e-15 11.9416004 1.2041669e-15 0.517592857 51.4928248 0.517592857 51.4928248 11.9416004"></polygon>
        <polygon id="path-5" points="13.9796496 0.0499285714 0.163450376 0.0499285714 0.163450376 23.4765019 13.9796496 23.4765019 13.9796496 0.0499285714"></polygon>
        <polygon id="path-7" points="22.0596692 15.9689966 22.0596692 0.183684586 0.234226316 0.183684586 0.234226316 15.9689966 22.0596692 15.9689966"></polygon>
        <polygon id="path-9" points="6.68526053 10.5112782 0.064031203 10.5112782 0.064031203 0.201115789 6.68526053 0.201115789 6.68526053 10.5112782"></polygon>
        <polygon id="path-11" points="7.16869173 10.3685 7.16869173 0.416071429 0.419224812 0.416071429 0.419224812 10.3685"></polygon>
    </defs>
    <g id="Page-1" stroke="none" stroke-width="1" fill="none" fill-rule="evenodd">
        <g id="StyleGuide---Brand---Logo" transform="translate(-827.000000, -447.000000)">
            <g id="Page-1" transform="translate(827.000000, 447.000000)">
                <g id="Group-3" transform="translate(0.000000, 12.213142)">
                    <mask id="mask-2" fill="white">
                        <use xlink:href="#path-1"></use>
                    </mask>
                    <g id="Clip-2"></g>
                    <path d="M-0.00017518797,0.335572556 L-0.00017518797,6.41021541 C1.6790015,6.41021541 3.21014436,7.08819286 4.30682105,8.18837331 C6.67886617,10.5595425 9.78144511,11.7516966 12.8875278,11.7552004 C15.9927346,11.7516966 19.0961895,10.5604184 21.4673586,8.18837331 C22.5640353,7.08819286 24.0759075,6.40846353 25.7542083,6.40846353 C27.432509,6.40846353 28.9452571,7.08819286 30.0428098,8.18837331 C32.4139789,10.5604184 35.5183098,11.7534485 38.6235165,11.7560763 C41.7287233,11.7534485 44.8313023,10.5604184 47.2024714,8.18924925 C48.2991481,7.0890688 49.8154,6.41021541 51.4928248,6.41021541 L51.490197,0.332944737 C48.1335955,0.332944737 45.1028436,1.69415526 42.9068624,3.89364023 C41.7217158,5.08053872 40.1730541,5.6779297 38.6217647,5.68055752 C37.0704752,5.6779297 35.5244414,5.07966278 34.3384188,3.89364023 C32.1424376,1.69415526 29.1116857,0.332944737 25.7550842,0.332944737 C22.3984827,0.332944737 19.3677308,1.69240338 17.1717496,3.89364023 C15.986603,5.07878684 14.4396932,5.67617782 12.8884038,5.67968158 C11.3362383,5.67617782 9.78932857,5.07878684 8.60330602,3.89364023 C6.40732481,1.69240338 3.35642632,0.335572556 -0.00017518797,0.335572556" id="Fill-1" fill="#037ABC" mask="url(#mask-2)"></path>
                </g>
                <g id="Group-6" transform="translate(0.000000, 2.577803)">
                    <mask id="mask-4" fill="white">
                        <use xlink:href="#path-3"></use>
                    </mask>
                    <g id="Clip-5"></g>
                    <path d="M-0.00017518797,0.521972556 L-0.00017518797,6.59661541 C1.6790015,6.59661541 3.21014436,7.27371692 4.30682105,8.37477331 C6.67886617,10.7459425 9.78144511,11.9372207 12.8875278,11.9398485 C15.9927346,11.9372207 19.0961895,10.7459425 21.4673586,8.37477331 C22.5640353,7.27371692 24.0759075,6.59398759 25.7542083,6.59398759 C27.432509,6.59398759 28.9452571,7.27371692 30.0428098,8.37477331 C32.4139789,10.7459425 35.5183098,11.9389726 38.6235165,11.9416004 C41.7287233,11.9389726 44.8313023,10.7468184 47.2024714,8.37477331 C48.2991481,7.27459286 49.8154,6.59661541 51.4928248,6.59661541 L51.490197,0.519344737 C48.1335955,0.519344737 45.1028436,1.87967932 42.9068624,4.07916429 C41.7217158,5.26518684 40.1730541,5.86345376 38.6217647,5.86695752 C37.0704752,5.86345376 35.5244414,5.26518684 34.3384188,4.07916429 C32.1424376,1.87880338 29.1116857,0.517592857 25.7550842,0.517592857 C22.3984827,0.517592857 19.3677308,1.87792744 17.1717496,4.07916429 C15.986603,5.2643109 14.4396932,5.86257782 12.8884038,5.86520564 C11.3362383,5.86257782 9.78932857,5.2643109 8.60330602,4.07828835 C6.40732481,1.87792744 3.35642632,0.521972556 -0.00017518797,0.521972556" id="Fill-4" fill="#037ABC" mask="url(#mask-4)"></path>
                </g>
                <polygon id="Fill-7" fill="#526278" points="70.0810568 23.8024391 67.311335 23.8024391 61.3707109 2.9445594 64.3410229 2.9445594 68.8459816 19.9316609 73.7521207 2.9445594 77.0228801 2.9445594 82.0612861 19.9316609 86.5005492 2.9445594 89.2702711 2.9445594 83.3629327 23.8024391 80.5266395 23.8024391 75.3542147 6.4483188"></polygon>
                <path d="M97.5764583,10.4538165 C94.5395748,10.4538165 92.8709094,12.8232338 92.8709094,16.1272789 C92.8709094,19.3971624 94.639432,21.8331511 97.6439056,21.8331511 C100.679037,21.8331511 102.348579,19.4970195 102.348579,16.1938504 C102.348579,12.923091 100.580056,10.4538165 97.5764583,10.4538165 M97.5431726,24.3033015 C93.2046425,24.3033015 90.167759,21.0991135 90.167759,16.1605647 C90.167759,11.2553015 93.3053756,7.98454211 97.7096011,7.98454211 C102.082293,7.98454211 105.051729,11.2211398 105.051729,16.1605647 C105.051729,21.0658278 101.847541,24.3033015 97.5431726,24.3033015" id="Fill-9" fill="#526278"></path>
                <path d="M111.524399,23.8024391 L108.787963,23.8024391 L108.787963,8.45159323 L111.524399,8.01712707 L111.524399,10.7202774 C112.59217,9.01832632 113.86053,8.01712707 115.795482,8.01712707 C116.830842,8.01712707 117.864452,8.28428872 118.666812,8.78532632 L117.966061,11.3553338 C117.13129,10.8542962 116.297395,10.653706 115.529196,10.653706 C114.061121,10.653706 112.659617,11.7214767 111.524399,13.8237323 L111.524399,23.8024391 Z" id="Fill-11" fill="#526278"></path>
                <g id="Group-15" transform="translate(120.003759, 0.825924)">
                    <mask id="mask-6" fill="white">
                        <use xlink:href="#path-5"></use>
                    </mask>
                    <g id="Clip-14"></g>
                    <path d="M7.83931128,9.66117857 C4.73498045,9.66117857 2.99974361,12.1979004 2.99974361,15.334641 C2.99974361,18.7052575 4.70169474,20.940656 7.53798797,20.940656 C8.97277744,20.940656 10.2087286,20.373047 11.2432135,19.4725808 L11.2432135,10.762235 C10.3418714,10.0281974 9.17336767,9.66117857 7.83931128,9.66117857 L7.83931128,9.66117857 Z M11.2432135,0.483956767 L13.9796496,0.0494906015 L13.9796496,22.9763402 L11.2432135,22.9763402 L11.2432135,21.5748365 C10.1412812,22.6093214 8.77306316,23.4765019 6.97125489,23.4765019 C2.66601053,23.4765019 0.163450376,20.0069041 0.163450376,15.4012124 C0.163450376,10.762235 3.36763835,7.19190414 7.93829248,7.19190414 C9.04022481,7.19190414 10.2744241,7.39161842 11.2432135,7.69206579 L11.2432135,0.483956767 Z" id="Fill-13" fill="#526278" mask="url(#mask-6)"></path>
                </g>
                <path d="M149.131212,18.2628203 C149.131212,16.1272789 147.529994,15.325794 144.126092,14.4253278 C141.154904,13.6238429 137.88502,12.355482 137.88502,8.31739925 C137.88502,4.81363985 140.722189,2.44422256 144.860129,2.44422256 C147.262832,2.44422256 149.431659,3.04424135 151.433182,4.28019248 L150.432859,6.74946692 C148.831641,5.68169624 146.761795,5.01423008 144.893415,5.01423008 C141.888941,5.01423008 140.654742,6.38244812 140.654742,8.11768496 C140.654742,10.2199406 142.424141,10.9539782 145.72731,11.8553203 C148.764193,12.6559293 151.867648,14.1248805 151.867648,18.0622301 C151.867648,21.6667226 148.897336,24.3033015 144.526396,24.3033015 C142.089532,24.3033015 139.553686,23.6025496 137.550411,22.3341887 L138.485915,19.7641812 C140.254438,20.932685 142.156979,21.7665797 144.592092,21.7665797 C147.229547,21.7665797 149.131212,20.3317902 149.131212,18.2628203" id="Fill-16" fill="#526278"></path>
                <path d="M160.30838,24.3028635 C157.338068,24.3028635 155.770135,22.8680741 155.869992,19.5307432 L156.103868,10.9877019 L153.568023,10.8203974 L153.667004,9.08516053 L156.203726,8.31783722 L156.270297,5.01379211 L158.906876,5.01379211 L158.807019,8.5175515 L163.579139,8.5175515 L163.479282,10.9877019 L158.707162,10.9877019 L158.473286,19.6314763 C158.44,21.0662658 159.107466,21.8003034 160.475684,21.8003034 C161.409436,21.8003034 162.34494,21.5664274 163.246282,21.2326944 C163.278692,21.2326944 163.745568,23.6353974 163.745568,23.6353974 C162.611226,24.0698635 161.442722,24.3028635 160.30838,24.3028635" id="Fill-18" fill="#526278"></path>
                <path d="M169.750836,23.8024391 L167.0144,23.8024391 L167.0144,8.45159323 L169.750836,8.01712707 L169.750836,10.7202774 C170.818607,9.01832632 172.086968,8.01712707 174.022795,8.01712707 C175.05728,8.01712707 176.091765,8.28428872 176.89325,8.78532632 L176.192498,11.3553338 C175.357727,10.8542962 174.523832,10.653706 173.755633,10.653706 C172.287558,10.653706 170.886054,11.7214767 169.750836,13.8237323 L169.750836,23.8024391 Z" id="Fill-20" fill="#526278"></path>
                <path d="M189.139152,14.4249774 L189.139152,14.1911015 C189.139152,11.9215414 188.071381,10.4201805 185.669554,10.4201805 C183.065385,10.4201805 181.530738,12.4891504 181.296862,14.4915489 L189.139152,14.4249774 Z M181.163719,16.6270902 C181.263576,19.630688 183.265975,21.7662293 186.202125,21.7662293 C187.805095,21.7662293 189.539456,21.3326391 190.774531,20.4987444 L191.274693,23.0345902 C189.907351,23.8693609 188.071381,24.3029511 186.135554,24.3029511 C181.530738,24.3029511 178.393997,20.998906 178.393997,16.3266429 C178.393997,11.388094 181.663881,8.01747744 185.934964,8.01747744 C189.640189,8.01747744 191.77573,10.353609 191.77573,13.9913872 C191.77573,14.825282 191.642588,15.7590338 191.441997,16.4273759 C191.408712,16.4273759 181.163719,16.4939474 181.163719,16.4939474 L181.163719,16.6270902 Z" id="Fill-22" fill="#526278"></path>
                <path d="M203.253871,16.1935876 C198.714751,16.7944823 197.046961,17.7282342 197.046961,19.5974898 C197.046961,20.9657079 198.08057,21.9669071 199.750112,21.9669071 C201.151615,21.9669071 202.385815,21.2661553 203.253871,20.3315274 L203.253871,16.1935876 Z M203.219709,22.1666214 C202.052082,23.5348395 200.650578,24.3030387 199.016074,24.3030387 C196.144743,24.3030387 194.143221,22.4004974 194.143221,19.9312229 C194.143221,17.1947868 196.112333,14.7920838 203.253871,14.4583508 L203.253871,14.0247605 C203.253871,11.5554861 202.286833,10.5542868 199.816683,10.5542868 C198.248751,10.5542868 196.312924,11.2874485 194.877258,12.255362 L194.343811,9.78608759 C195.678743,8.85145977 197.914142,8.01756504 200.082969,8.01756504 C204.221785,8.01756504 206.056879,9.78608759 205.990307,13.9573132 L205.990307,20.3648132 C205.990307,21.6331741 206.157612,21.86705 207.491668,21.86705 L207.325239,24.1698959 C204.855965,24.3696102 203.754909,23.5024297 203.354604,22.1666214 L203.219709,22.1666214 Z" id="Fill-24" fill="#526278"></path>
                <g id="Group-28" transform="translate(210.225564, 7.833442)">
                    <mask id="mask-8" fill="white">
                        <use xlink:href="#path-7"></use>
                    </mask>
                    <g id="Clip-27"></g>
                    <path d="M19.3235835,15.9689966 L19.3235835,6.42475602 C19.3235835,3.75489135 18.3556699,2.78697782 16.3856812,2.78697782 C14.684606,2.78697782 13.3829594,3.68744398 12.514903,4.52221466 L12.514903,5.45684248 L12.514903,15.9689966 L9.77846692,15.9689966 L9.77846692,6.42475602 C9.77846692,3.75489135 8.81142932,2.78697782 6.8414406,2.78697782 C5.14036541,2.78697782 3.8387188,3.52189135 2.97066241,4.35578609 L2.97066241,15.9689966 L0.234226316,15.9689966 L0.234226316,0.618150752 L2.97066241,0.183684586 L2.97066241,2.28594023 C4.43873759,0.884436466 6.04083158,0.183684586 7.8768015,0.183684586 C9.64532406,0.183684586 11.1133992,1.01845526 11.8807226,2.72040639 C13.5169782,1.08502669 15.3179105,0.183684586 17.4210421,0.183684586 C20.2240496,0.183684586 22.0600195,2.15279737 22.0600195,5.52341391 L22.0600195,15.9689966 L19.3235835,15.9689966 Z" id="Fill-26" fill="#526278" mask="url(#mask-8)"></path>
                </g>
                <path d="M65.8326609,33.0118079 C63.9309955,33.0118079 62.6013188,34.4273267 62.6013188,36.5725034 C62.6013188,38.7746162 63.9309955,40.20415 65.889597,40.20415 C67.7912624,40.20415 69.1358301,38.7746162 69.1358301,36.6294395 C69.1358301,34.4273267 67.7912624,33.0118079 65.8326609,33.0118079 M65.8615669,41.2911914 C63.2442586,41.2911914 61.3706233,39.4604771 61.3706233,36.6294395 C61.3706233,33.9551951 63.2302436,31.9247665 65.8615669,31.9247665 C68.4779992,31.9247665 70.3516346,33.7414658 70.3516346,36.5725034 C70.3516346,39.2467477 68.4928902,41.2911914 65.8615669,41.2911914" id="Fill-29" fill="#526278"></path>
                <path d="M76.2724624,41.0765861 L76.2724624,36.9579169 C76.2724624,35.8288305 75.8432519,35.442541 74.9138797,35.442541 C74.2280188,35.442541 73.569312,35.7999244 73.1979135,36.1581838 L73.1979135,41.0765861 L72.0250301,41.0765861 L72.0250301,34.4991538 L73.1979135,34.3125786 L73.1979135,35.2997628 C73.7979323,34.698868 74.5705113,34.3125786 75.3281992,34.3125786 C76.6587519,34.3125786 77.4453459,35.1569846 77.4453459,36.5725034 L77.4453459,41.0765861 L76.2724624,41.0765861 Z" id="Fill-31" fill="#526278"></path>
                <polygon id="Fill-33" fill="#526278" points="79.4191011 41.0765861 79.4191011 31.4386199 80.5911086 31.2529207 80.5911086 41.0765861"></polygon>
                <path d="M82.6230263,41.0765861 L82.6230263,34.4991538 L83.7950338,34.3125786 L83.7950338,41.0765861 L82.6230263,41.0765861 Z M83.2090301,33.083635 C82.6799624,33.083635 82.4373271,32.6824545 82.4373271,32.2392289 C82.4373271,31.7960034 82.6799624,31.3956989 83.2090301,31.3956989 C83.7380977,31.3956989 83.981609,31.7960034 83.981609,32.2392289 C83.981609,32.6824545 83.7380977,33.083635 83.2090301,33.083635 L83.2090301,33.083635 Z" id="Fill-35" fill="#526278"></path>
                <path d="M90.0732451,41.0765861 L90.0732451,36.9579169 C90.0732451,35.8288305 89.6449105,35.442541 88.7146624,35.442541 C88.0288015,35.442541 87.3709707,35.7999244 86.9986962,36.1581838 L86.9986962,41.0765861 L85.8266887,41.0765861 L85.8266887,34.4991538 L86.9986962,34.3125786 L86.9986962,35.2997628 C87.599591,34.698868 88.371294,34.3125786 89.128982,34.3125786 C90.4595346,34.3125786 91.2461286,35.1569846 91.2461286,36.5725034 L91.2461286,41.0765861 L90.0732451,41.0765861 Z" id="Fill-37" fill="#526278"></path>
                <path d="M97.3955767,37.0587376 L97.3955767,36.9580045 C97.3955767,35.9857113 96.9383361,35.3427714 95.9082308,35.3427714 C94.7931594,35.3427714 94.1353286,36.2292226 94.0354714,37.0867677 L97.3955767,37.0587376 Z M93.9785353,38.0021248 C94.0205805,39.2888805 94.8790015,40.2042376 96.1368511,40.2042376 C96.823588,40.2042376 97.5672609,40.0185383 98.0963286,39.6611549 L98.3109338,40.7473203 C97.7249301,41.1055797 96.9383361,41.2912789 96.1088211,41.2912789 C94.1353286,41.2912789 92.7907609,39.8757602 92.7907609,37.8733617 C92.7907609,35.757091 94.1922647,34.3126662 96.0229789,34.3126662 C97.610182,34.3126662 98.5255391,35.3138654 98.5255391,36.8730383 C98.5255391,37.2295459 98.468603,37.6307263 98.381885,37.9162827 C98.3678699,37.9162827 93.9785353,37.9451887 93.9785353,37.9451887 L93.9785353,38.0021248 Z" id="Fill-39" fill="#526278"></path>
                <path d="M106.448765,33.3980098 L104.904483,37.6305511 L107.979032,37.6305511 L106.448765,33.3980098 Z M110.466702,41.0764985 L109.222867,41.0764985 L108.379337,38.7316075 L104.504179,38.7316075 L103.660649,41.0764985 L102.401923,41.0764985 L105.762029,32.1392842 L107.149517,32.1392842 L110.466702,41.0764985 Z" id="Fill-41" fill="#526278"></path>
                <path d="M114.414387,35.3709767 C113.084711,35.3709767 112.341038,36.458018 112.341038,37.8017098 C112.341038,39.2461346 113.06982,40.2044128 114.285624,40.2044128 C114.900534,40.2044128 115.429602,39.9617774 115.872827,39.575488 L115.872827,35.8431083 C115.486538,35.5286459 114.986376,35.3709767 114.414387,35.3709767 L114.414387,35.3709767 Z M115.872827,31.4388827 L117.045711,31.2523075 L117.045711,41.0768489 L115.872827,41.0768489 L115.872827,40.4759541 C115.400695,40.9191797 114.814692,41.2914541 114.042989,41.2914541 C112.197383,41.2914541 111.125233,39.8041083 111.125233,37.8306158 C111.125233,35.8431083 112.497831,34.3128414 114.457308,34.3128414 C114.928564,34.3128414 115.458508,34.3986835 115.872827,34.5274466 L115.872827,31.4388827 Z" id="Fill-43" fill="#526278"></path>
                <polygon id="Fill-45" fill="#526278" points="121.764924 41.0911267 120.678759 41.0911267 118.090356 34.5277094 119.348206 34.5277094 121.264762 39.6177959 123.095477 34.5277094 124.339311 34.5277094"></polygon>
                <path d="M129.487998,37.0587376 L129.487998,36.9580045 C129.487998,35.9857113 129.030758,35.3427714 128.000652,35.3427714 C126.885581,35.3427714 126.22775,36.2292226 126.127893,37.0867677 L129.487998,37.0587376 Z M126.070081,38.0021248 C126.113002,39.2888805 126.970547,40.2042376 128.229273,40.2042376 C128.916009,40.2042376 129.659682,40.0185383 130.18875,39.6611549 L130.402479,40.7473203 C129.816476,41.1055797 129.030758,41.2912789 128.201242,41.2912789 C126.22775,41.2912789 124.883182,39.8757602 124.883182,37.8733617 C124.883182,35.757091 126.284686,34.3126662 128.1154,34.3126662 C129.702603,34.3126662 130.617961,35.3138654 130.617961,36.8730383 C130.617961,37.2295459 130.560148,37.6307263 130.474306,37.9162827 C130.460291,37.9162827 126.070081,37.9451887 126.070081,37.9451887 L126.070081,38.0021248 Z" id="Fill-47" fill="#526278"></path>
                <path d="M133.349316,41.0765861 L132.177309,41.0765861 L132.177309,34.4991538 L133.349316,34.3125786 L133.349316,35.471447 C133.806557,34.7417891 134.350515,34.3125786 135.18003,34.3125786 C135.623256,34.3125786 136.066482,34.4273267 136.40985,34.641932 L136.109403,35.7429883 C135.752019,35.5283831 135.394636,35.442541 135.065282,35.442541 C134.436358,35.442541 133.836339,35.8997816 133.349316,36.8011237 L133.349316,41.0765861 Z" id="Fill-49" fill="#526278"></path>
                <path d="M139.742188,41.2912789 C138.469447,41.2912789 137.797602,40.6763692 137.840523,39.2468353 L137.94038,35.5854068 L136.854214,35.5144556 L136.896259,34.7707827 L137.983301,34.4414293 L138.012207,33.0259105 L139.141293,33.0259105 L139.098372,34.5272714 L141.143692,34.5272714 L141.100771,35.5854068 L139.055451,35.5854068 L138.955594,39.2888805 C138.940703,39.9037902 139.228011,40.2182526 139.814015,40.2182526 C140.21432,40.2182526 140.614624,40.1192714 141.000914,39.9756173 C141.014929,39.9756173 141.215519,41.0048466 141.215519,41.0048466 C140.728496,41.1914218 140.228335,41.2912789 139.742188,41.2912789" id="Fill-51" fill="#526278"></path>
                <path d="M142.616847,41.0765861 L142.616847,34.4991538 L143.788855,34.3125786 L143.788855,41.0765861 L142.616847,41.0765861 Z M143.202851,33.083635 C142.673783,33.083635 142.431148,32.6824545 142.431148,32.2392289 C142.431148,31.7960034 142.673783,31.3956989 143.202851,31.3956989 C143.731919,31.3956989 143.97543,31.7960034 143.97543,32.2392289 C143.97543,32.6824545 143.731919,33.083635 143.202851,33.083635 L143.202851,33.083635 Z" id="Fill-53" fill="#526278"></path>
                <path d="M147.536301,41.3053816 C146.735692,41.3053816 145.848365,41.0627462 145.248346,40.6904718 L145.547917,39.6183214 C146.091876,39.9897199 146.893361,40.2332312 147.565207,40.2332312 C148.308004,40.2332312 148.866853,39.8898628 148.866853,39.3029831 C148.866853,38.6460282 148.094274,38.4314229 147.321695,38.2168177 C146.392323,37.9592914 145.377109,37.5020508 145.377109,36.3011372 C145.377109,35.0853327 146.406338,34.3127538 147.722,34.3127538 C148.480564,34.3127538 149.238252,34.498453 149.838271,34.7989004 L149.538699,35.8710508 C148.994741,35.5714793 148.208147,35.3857801 147.665064,35.3857801 C146.964312,35.3857801 146.507071,35.6713365 146.507071,36.2004041 C146.507071,36.8302049 147.207823,37.0439342 148.022447,37.2585395 C148.980726,37.5160658 150.009955,37.9733064 150.009955,39.2180169 C150.009955,40.4618515 148.965835,41.3053816 147.536301,41.3053816" id="Fill-55" fill="#526278"></path>
                <path d="M151.555025,41.0765861 L151.555025,34.4991538 L152.727033,34.3125786 L152.727033,41.0765861 L151.555025,41.0765861 Z M152.141029,33.083635 C151.611961,33.083635 151.369326,32.6824545 151.369326,32.2392289 C151.369326,31.7960034 151.611961,31.3956989 152.141029,31.3956989 C152.670097,31.3956989 152.913608,31.7960034 152.913608,32.2392289 C152.913608,32.6824545 152.670097,33.083635 152.141029,33.083635 L152.141029,33.083635 Z" id="Fill-57" fill="#526278"></path>
                <path d="M159.005594,41.0765861 L159.005594,36.9579169 C159.005594,35.8288305 158.576384,35.442541 157.647012,35.442541 C156.961151,35.442541 156.30332,35.7999244 155.931045,36.1581838 L155.931045,41.0765861 L154.758162,41.0765861 L154.758162,34.4991538 L155.931045,34.3125786 L155.931045,35.2997628 C156.53194,34.698868 157.303643,34.3125786 158.061331,34.3125786 C159.391884,34.3125786 160.178478,35.1569846 160.178478,36.5725034 L160.178478,41.0765861 L159.005594,41.0765861 Z" id="Fill-59" fill="#526278"></path>
                <g id="Group-63" transform="translate(161.172932, 34.111638)">
                    <mask id="mask-10" fill="white">
                        <use xlink:href="#path-9"></use>
                    </mask>
                    <g id="Clip-62"></g>
                    <path d="M3.31026429,4.14810075 C4.1678094,4.14810075 4.71176805,3.53319098 4.71176805,2.61783383 C4.71176805,1.75941278 4.21073045,1.14450301 3.21040714,1.14450301 C2.35198609,1.14450301 1.77999737,1.77430376 1.77999737,2.6896609 C1.77999737,3.56209699 2.36687707,4.14810075 3.31026429,4.14810075 M1.22202368,8.33772105 C1.22202368,9.03847293 2.05153872,9.55352556 3.29537331,9.55352556 C4.5260688,9.55352556 5.49836203,9.02445789 5.49836203,8.22297293 C5.49836203,7.50820602 4.85454624,7.33739774 3.53888459,7.33739774 C3.12456504,7.33739774 2.63841842,7.30761579 2.35198609,7.27958571 C1.69415526,7.46528496 1.22202368,7.85157444 1.22202368,8.33772105 M0.60798985,5.96392406 C0.60798985,5.42084135 1.03632444,4.91980376 1.69415526,4.6920594 C1.00829436,4.29087895 0.60798985,3.57611203 0.60798985,2.67476992 C0.60798985,1.38801429 1.56539211,0.201115789 3.26734323,0.201115789 C3.96809511,0.201115789 4.54008383,0.387690977 4.95440338,0.573390226 L6.64233947,0.415721053 L6.68526053,1.57458947 L5.42653496,1.34509323 C5.68406128,1.58860451 5.86976053,2.20263835 5.86976053,2.6896609 C5.86976053,4.00532256 4.78359511,5.09236391 3.2533282,5.09236391 C2.92397481,5.09236391 2.72426053,5.04856692 2.33797105,4.93469474 C2.0664297,5.03455188 1.69415526,5.2920782 1.69415526,5.62143158 C1.69415526,6.00772105 1.95168158,6.23634135 3.18150113,6.23634135 L3.78239586,6.23634135 C5.74099737,6.23634135 6.64233947,6.83636015 6.64233947,7.99522857 C6.64233947,9.43965338 5.08316654,10.5118038 3.10967406,10.5118038 C1.37969286,10.5118038 0.064031203,9.76813083 0.064031203,8.59524737 C0.064031203,7.85157444 0.565068797,7.23666466 1.46553496,7.06585639 C0.908437218,6.82234511 0.60798985,6.4220406 0.60798985,5.96392406" id="Fill-61" fill="#526278" mask="url(#mask-10)"></path>
                </g>
                <polygon id="Fill-64" fill="#526278" points="180.042253 33.6405575 177.325088 40.9485237 176.110159 40.9485237 173.378979 33.6265425 173.278246 41.0764109 172.091347 41.0764109 172.391795 32.1391966 174.007904 32.1391966 176.753099 39.4892079 179.48428 32.1391966 181.072359 32.1391966 181.357915 41.0764109 180.128095 41.0764109"></polygon>
                <path d="M186.6217,37.8166008 C184.676238,38.0732511 183.961471,38.4735556 183.961471,39.2750406 C183.961471,39.8610444 184.404697,40.2902549 185.120339,40.2902549 C185.720358,40.2902549 186.249426,39.9898075 186.6217,39.589503 L186.6217,37.8166008 Z M186.606809,40.376097 C186.106648,40.9621008 185.505753,41.2914541 184.805001,41.2914541 C183.575182,41.2914541 182.717636,40.4759541 182.717636,39.4178188 C182.717636,38.2449353 183.561167,37.215706 186.6217,37.0729278 L186.6217,36.8863526 C186.6217,35.8282173 186.206505,35.3998827 185.14837,35.3998827 C184.476524,35.3998827 183.647009,35.7143451 183.032099,36.1286647 L182.803479,35.0705293 C183.375467,34.6702248 184.333745,34.3128414 185.263118,34.3128414 C187.03602,34.3128414 187.822614,35.0705293 187.793708,36.8583226 L187.793708,39.603518 C187.793708,40.1474767 187.865535,40.2473338 188.437524,40.2473338 L188.366573,41.2336421 C187.308437,41.3203602 186.836306,40.9480857 186.664621,40.376097 L186.606809,40.376097 Z" id="Fill-66" fill="#526278"></path>
                <path d="M192.570646,35.3709767 C191.240969,35.3709767 190.497296,36.458018 190.497296,37.8017098 C190.497296,39.2461346 191.226954,40.2044128 192.442759,40.2044128 C193.056792,40.2044128 193.58586,39.9617774 194.029962,39.575488 L194.029962,35.8431083 C193.643672,35.5286459 193.142635,35.3709767 192.570646,35.3709767 L192.570646,35.3709767 Z M194.029962,31.4388827 L195.201969,31.2523075 L195.201969,41.0768489 L194.029962,41.0768489 L194.029962,40.4759541 C193.556954,40.9191797 192.971826,41.2914541 192.199247,41.2914541 C190.354518,41.2914541 189.281492,39.8041083 189.281492,37.8306158 C189.281492,35.8431083 190.654089,34.3128414 192.613567,34.3128414 C193.085698,34.3128414 193.614766,34.3986835 194.029962,34.5274466 L194.029962,31.4388827 Z" id="Fill-68" fill="#526278"></path>
                <path d="M201.408704,37.0587376 L201.408704,36.9580045 C201.408704,35.9857113 200.951463,35.3427714 199.921358,35.3427714 C198.806286,35.3427714 198.148456,36.2292226 198.048598,37.0867677 L201.408704,37.0587376 Z M197.991662,38.0021248 C198.033708,39.2888805 198.892129,40.2042376 200.149978,40.2042376 C200.836715,40.2042376 201.580388,40.0185383 202.109456,39.6611549 L202.324061,40.7473203 C201.738057,41.1055797 200.951463,41.2912789 200.121948,41.2912789 C198.148456,41.2912789 196.803888,39.8757602 196.803888,37.8733617 C196.803888,35.757091 198.205392,34.3126662 200.036106,34.3126662 C201.623309,34.3126662 202.538666,35.3138654 202.538666,36.8730383 C202.538666,37.2295459 202.48173,37.6307263 202.395012,37.9162827 C202.380997,37.9162827 197.991662,37.9451887 197.991662,37.9451887 L197.991662,38.0021248 Z" id="Fill-70" fill="#526278"></path>
                <polygon id="Fill-72" fill="#526278" points="207.473186 41.0765861 207.473186 32.1393718 213.136137 32.1393718 213.136137 33.2684583 208.68899 33.2684583 208.68899 36.0285447 212.392464 36.0285447 212.392464 37.1585071 208.68899 37.1585071 208.68899 39.9466237 213.136137 39.9466237 213.136137 41.0765861"></polygon>
                <path d="M218.199157,37.8166008 C216.253694,38.0732511 215.538927,38.4735556 215.538927,39.2750406 C215.538927,39.8610444 215.982153,40.2902549 216.69692,40.2902549 C217.297815,40.2902549 217.826882,39.9898075 218.199157,39.589503 L218.199157,37.8166008 Z M218.184266,40.376097 C217.684104,40.9621008 217.083209,41.2914541 216.382458,41.2914541 C215.152638,41.2914541 214.295093,40.4759541 214.295093,39.4178188 C214.295093,38.2449353 215.138623,37.215706 218.199157,37.0729278 L218.199157,36.8863526 C218.199157,35.8282173 217.783961,35.3998827 216.725826,35.3998827 C216.05398,35.3998827 215.224465,35.7143451 214.609555,36.1286647 L214.380935,35.0705293 C214.952924,34.6702248 215.911202,34.3128414 216.840574,34.3128414 C218.613476,34.3128414 219.40007,35.0705293 219.371164,36.8583226 L219.371164,39.603518 C219.371164,40.1474767 219.442991,40.2473338 220.01498,40.2473338 L219.943153,41.2336421 C218.885018,41.3203602 218.413762,40.9480857 218.242078,40.376097 L218.184266,40.376097 Z" id="Fill-74" fill="#526278"></path>
                <path d="M223.00395,41.3053816 C222.203341,41.3053816 221.316889,41.0627462 220.715995,40.6904718 L221.016442,39.6183214 C221.560401,39.9897199 222.36101,40.2332312 223.032856,40.2332312 C223.776529,40.2332312 224.334502,39.8898628 224.334502,39.3029831 C224.334502,38.6460282 223.561923,38.4314229 222.789344,38.2168177 C221.859972,37.9592914 220.845634,37.5020508 220.845634,36.3011372 C220.845634,35.0853327 221.873987,34.3127538 223.189649,34.3127538 C223.948213,34.3127538 224.705901,34.498453 225.30592,34.7989004 L225.006348,35.8710508 C224.463265,35.5714793 223.676671,35.3857801 223.132713,35.3857801 C222.432837,35.3857801 221.97472,35.6713365 221.97472,36.2004041 C221.97472,36.8302049 222.675472,37.0439342 223.490972,37.2585395 C224.448374,37.5160658 225.47848,37.9733064 225.47848,39.2180169 C225.47848,40.4618515 224.434359,41.3053816 223.00395,41.3053816" id="Fill-76" fill="#526278"></path>
                <g id="Group-80" transform="translate(225.116541, 34.111638)">
                    <mask id="mask-12" fill="white">
                        <use xlink:href="#path-11"></use>
                    </mask>
                    <g id="Clip-79"></g>
                    <path d="M4.55190902,7.03642481 L4.10868346,8.20930827 C3.47888271,9.86833835 2.82192782,10.3685 1.80671353,10.3685 C1.30567594,10.3685 0.862450376,10.2257218 0.419224812,10.0251316 L0.762593233,8.93809023 C1.10508571,9.11065038 1.47736015,9.25342857 1.80671353,9.25342857 C2.30687519,9.25342857 2.62133759,8.98188722 3.06456316,7.83790977 L3.46486767,6.82181955 L0.920262406,0.416071429 L2.17811203,0.416071429 L4.07977744,5.50615789 L5.92450677,0.416071429 L7.16921729,0.416071429 L4.55190902,7.03642481 Z" id="Fill-78" fill="#526278" mask="url(#mask-12)"></path>
                </g>
            </g>
        </g>
    </g>
</svg>